<svg viewBox="0 0 800 200" xmlns="http://www.w3.org/2000/svg">
<rect width="800" height="200" fill="#0a0f0a"/>
<line x1="40" y1="0" x2="40" y2="200" stroke="#00ff41" stroke-width=".3" opacity=".12"/><line x1="80" y1="0" x2="80" y2="200" stroke="#00ff41" stroke-width=".3" opacity=".1"/><line x1="120" y1="0" x2="120" y2="200" stroke="#00ff41" stroke-width=".3" opacity=".12"/><line x1="160" y1="0" x2="160" y2="200" stroke="#00ff41" stroke-width=".3" opacity=".1"/><line x1="200" y1="0" x2="200" y2="200" stroke="#00ff41" stroke-width=".3" opacity=".12"/><line x1="240" y1="0" x2="240" y2="200" stroke="#00ff41" stroke-width=".3" opacity=".1"/><line x1="280" y1="0" x2="280" y2="200" stroke="#00ff41" stroke-width=".3" opacity=".12"/><line x1="320" y1="0" x2="320" y2="200" stroke="#00ff41" stroke-width=".3" opacity=".1"/><line x1="360" y1="0" x2="360" y2="200" stroke="#00ff41" stroke-width=".3" opacity=".12"/><line x1="400" y1="0" x2="400" y2="200" stroke="#00ff41" stroke-width=".3" opacity=".1"/><line x1="440" y1="0" x2="440" y2="200" stroke="#00ff41" stroke-width=".3" opacity=".12"/><line x1="480" y1="0" x2="480" y2="200" stroke="#00ff41" stroke-width=".3" opacity=".1"/><line x1="520" y1="0" x2="520" y2="200" stroke="#00ff41" stroke-width=".3" opacity=".12"/><line x1="560" y1="0" x2="560" y2="200" stroke="#00ff41" stroke-width=".3" opacity=".1"/><line x1="600" y1="0" x2="600" y2="200" stroke="#00ff41" stroke-width=".3" opacity=".12"/><line x1="640" y1="0" x2="640" y2="200" stroke="#00ff41" stroke-width=".3" opacity=".1"/><line x1="680" y1="0" x2="680" y2="200" stroke="#00ff41" stroke-width=".3" opacity=".12"/><line x1="720" y1="0" x2="720" y2="200" stroke="#00ff41" stroke-width=".3" opacity=".1"/><line x1="760" y1="0" x2="760" y2="200" stroke="#00ff41" stroke-width=".3" opacity=".12"/>
<text x="24" y="55" font-family="'Courier New',monospace" font-size="11" fill="#00ff41" opacity=".4">01001001 00100000 01100001 01101101 00100000 01010010 01101001 01110100 01101001 01101011</text>
<text x="400" y="120" text-anchor="middle" font-family="'Courier New',monospace" font-size="56" font-weight="700" fill="#00ff41" letter-spacing="12">RITIK</text>
<text x="400" y="152" text-anchor="middle" font-family="'Courier New',monospace" font-size="14" fill="#00cc33" letter-spacing="4">DEVELOPER · DATA ENGINEER · AI/ML</text>
<text x="24" y="188" font-family="'Courier New',monospace" font-size="11" fill="#005511">root@ritik:~$ _</text>
</svg>
