<svg viewBox="0 0 800 200" xmlns="http://www.w3.org/2000/svg">
<defs>
<linearGradient id="bg" x1="0" y1="0" x2="1" y2="1"><stop offset="0%" stop-color="#020818"/><stop offset="100%" stop-color="#0a0022"/></linearGradient>
<linearGradient id="g1" x1="0" y1="0" x2="0.5" y2="1"><stop offset="0%" stop-color="#00ff88" stop-opacity="0"/><stop offset="50%" stop-color="#00ff88" stop-opacity="0.15"/><stop offset="100%" stop-color="#00ff88" stop-opacity="0"/></linearGradient>
<linearGradient id="g2" x1="0" y1="0" x2="0.5" y2="1"><stop offset="0%" stop-color="#7700ff" stop-opacity="0"/><stop offset="50%" stop-color="#7700ff" stop-opacity="0.2"/><stop offset="100%" stop-color="#7700ff" stop-opacity="0"/></linearGradient>
<linearGradient id="g3" x1="0" y1="0" x2="0.5" y2="1"><stop offset="0%" stop-color="#00aaff" stop-opacity="0"/><stop offset="40%" stop-color="#00aaff" stop-opacity="0.12"/><stop offset="100%" stop-color="#00aaff" stop-opacity="0"/></linearGradient>
<linearGradient id="ln" x1="0" y1="0" x2="1" y2="0"><stop offset="0%" stop-color="#00ff88" stop-opacity="0"/><stop offset="30%" stop-color="#00ff88"/><stop offset="70%" stop-color="#7700ff"/><stop offset="100%" stop-color="#7700ff" stop-opacity="0"/></linearGradient>
<style>.p{animation:p 3s ease-in-out infinite}.g{animation:g 4s ease-in-out infinite alternate}.f{animation:f 2.5s ease-in-out infinite alternate}@keyframes p{0%,100%{opacity:.5}50%{opacity:1}}@keyframes g{0%{filter:drop-shadow(0 0 6px #00ff88)}100%{filter:drop-shadow(0 0 20px #7700ff)}}@keyframes f{0%{opacity:.3}100%{opacity:.9}}</style>
</defs>
<rect width="800" height="200" fill="url(#bg)"/>
<ellipse cx="180" cy="40" rx="260" ry="120" fill="url(#g1)" transform="rotate(-18,180,40)"/>
<ellipse cx="460" cy="20" rx="280" ry="130" fill="url(#g2)" transform="rotate(10,460,20)"/>
<ellipse cx="660" cy="50" rx="200" ry="100" fill="url(#g3)" transform="rotate(-22,660,50)"/>
<circle cx="50" cy="25" r="1.2" fill="#fff" opacity=".7" class="p"/><circle cx="130" cy="14" r=".8" fill="#fff" opacity=".5" class="f"/><circle cx="220" cy="32" r="1" fill="#fff" opacity=".6" class="p"/><circle cx="340" cy="12" r="1.3" fill="#fff" opacity=".8" class="f"/><circle cx="430" cy="28" r=".7" fill="#fff" opacity=".4" class="p"/><circle cx="540" cy="10" r="1.1" fill="#fff" opacity=".9" class="f"/><circle cx="620" cy="35" r=".8" fill="#fff" opacity=".6" class="p"/><circle cx="720" cy="18" r="1" fill="#fff" opacity=".7" class="f"/><circle cx="770" cy="45" r=".7" fill="#fff" opacity=".4" class="p"/>
<text x="400" y="105" text-anchor="middle" font-family="Georgia,serif" font-size="64" font-weight="700" fill="#ffffff" letter-spacing="14" class="g">RITIK</text>
<rect x="140" y="118" width="520" height="1.5" fill="url(#ln)" class="p"/>
<text x="400" y="148" text-anchor="middle" font-family="'Courier New',monospace" font-size="14" fill="#88ddff" letter-spacing="5" class="f">Developer  ·  Data Engineer  ·  AI/ML</text>
<text x="400" y="174" text-anchor="middle" font-family="'Courier New',monospace" font-size="11" fill="#44aa77" letter-spacing="3">Building intelligent systems · One commit at a time</text>
<rect x="0" y="195" width="800" height="5" fill="url(#ln)" opacity=".5"/>
</svg>
