<svg viewBox="0 0 800 200" xmlns="http://www.w3.org/2000/svg">
<rect width="800" height="200" fill="#0a0015"/>
<line x1="0" y1="162" x2="800" y2="162" stroke="#ff00aa" stroke-width=".8"/><line x1="0" y1="172" x2="800" y2="172" stroke="#aa0077" stroke-width=".5"/><line x1="0" y1="180" x2="800" y2="180" stroke="#660055" stroke-width=".4"/><line x1="0" y1="187" x2="800" y2="187" stroke="#440033" stroke-width=".3"/><line x1="0" y1="193" x2="800" y2="193" stroke="#330022" stroke-width=".3"/>
<line x1="70" y1="162" x2="0" y2="200" stroke="#880066" stroke-width=".5"/><line x1="155" y1="162" x2="90" y2="200" stroke="#880066" stroke-width=".5"/><line x1="240" y1="162" x2="185" y2="200" stroke="#880066" stroke-width=".5"/><line x1="330" y1="162" x2="285" y2="200" stroke="#880066" stroke-width=".5"/><line x1="420" y1="162" x2="390" y2="200" stroke="#880066" stroke-width=".5"/><line x1="510" y1="162" x2="495" y2="200" stroke="#880066" stroke-width=".5"/><line x1="600" y1="162" x2="600" y2="200" stroke="#880066" stroke-width=".5"/><line x1="690" y1="162" x2="705" y2="200" stroke="#880066" stroke-width=".5"/><line x1="770" y1="162" x2="800" y2="200" stroke="#880066" stroke-width=".5"/>
<circle cx="400" cy="75" r="55" fill="#ff6600" opacity=".1"/><circle cx="400" cy="75" r="38" fill="#ff4400" opacity=".15"/><circle cx="400" cy="75" r="22" fill="#ffaa00" opacity=".25"/>
<text x="400" y="92" text-anchor="middle" font-family="'Arial Black',sans-serif" font-size="50" font-weight="900" fill="none" stroke="#ff00aa" stroke-width="2">RITIK</text>
<text x="400" y="92" text-anchor="middle" font-family="'Arial Black',sans-serif" font-size="50" font-weight="900" fill="#ff88ee">RITIK</text>
<text x="400" y="136" text-anchor="middle" font-family="monospace" font-size="13" fill="#cc44aa" letter-spacing="5">DEVELOPER  •  DATA ENGINEER  •  AI/ML</text>
<text x="400" y="156" text-anchor="middle" font-family="monospace" font-size="10" fill="#661144" letter-spacing="3">Building the future · One model at a time</text>
</svg>
