<svg viewBox="0 0 800 200" xmlns="http://www.w3.org/2000/svg">
<defs>
<radialGradient id="nb1" cx="30%" cy="40%" r="50%"><stop offset="0%" stop-color="#1a0050" stop-opacity=".8"/><stop offset="100%" stop-color="#020818" stop-opacity="0"/></radialGradient>
<radialGradient id="nb2" cx="70%" cy="60%" r="50%"><stop offset="0%" stop-color="#003344" stop-opacity=".8"/><stop offset="100%" stop-color="#020818" stop-opacity="0"/></radialGradient>
<style>.st{animation:st 3s ease-in-out infinite}.st2{animation:st 4s ease-in-out infinite}.st3{animation:st 5s ease-in-out infinite}@keyframes st{0%,100%{opacity:.3}50%{opacity:1}}</style>
</defs>
<rect width="800" height="200" fill="#020818"/>
<rect width="800" height="200" fill="url(#nb1)"/><rect width="800" height="200" fill="url(#nb2)"/>
<circle cx="45" cy="20" r="1.3" fill="#fff" class="st"/><circle cx="120" cy="10" r=".8" fill="#fff" class="st2"/><circle cx="200" cy="30" r="1.1" fill="#fff" class="st3"/><circle cx="310" cy="8" r="1.4" fill="#fff" class="st"/><circle cx="390" cy="22" r=".7" fill="#fff" class="st2"/><circle cx="470" cy="6" r="1.2" fill="#fff" class="st3"/><circle cx="560" cy="28" r=".9" fill="#fff" class="st"/><circle cx="650" cy="14" r="1" fill="#fff" class="st2"/><circle cx="740" cy="35" r=".8" fill="#fff" class="st3"/><circle cx="25" cy="60" r=".7" fill="#fff" class="st"/><circle cx="780" cy="55" r=".9" fill="#fff" class="st2"/><circle cx="170" cy="175" r=".8" fill="#fff" class="st3"/><circle cx="630" cy="180" r=".7" fill="#fff" class="st"/><circle cx="90" cy="170" r="1" fill="#fff" class="st2"/><circle cx="710" cy="165" r=".8" fill="#fff" class="st3"/>
<text x="400" y="114" text-anchor="middle" font-family="'Helvetica Neue',Arial,sans-serif" font-size="60" font-weight="300" fill="#e8e0ff" letter-spacing="16">RITIK</text>
<text x="400" y="148" text-anchor="middle" font-family="monospace" font-size="13" fill="#7799cc" letter-spacing="5">DEVELOPER  ·  DATA ENGINEER  ·  AI/ML</text>
<text x="400" y="172" text-anchor="middle" font-family="monospace" font-size="10" fill="#334466" letter-spacing="3">Exploring the universe of code and data</text>
</svg>
